<?xml version="1.0" encoding="UTF-8" standalone="no"?>
<svg width="3202px" height="718px" viewBox="0 0 3202 718" version="1.1" xmlns="http://www.w3.org/2000/svg" xmlns:xlink="http://www.w3.org/1999/xlink">
    <!-- Generator: Sketch 3.7.2 (28276) - http://www.bohemiancoding.com/sketch -->
    <title>rfp logo 2</title>
    <desc>Created with Sketch.</desc>
    <defs></defs>
    <g id="Page-1" stroke="none" stroke-width="1" fill="none" fill-rule="evenodd">
        <g id="Group" transform="translate(670.000000, 113.000000)">
            <path d="M913.115672,238.888185 C922.160181,238.961935 930.835211,238.360931 934.197036,238.360931 C953.344703,238.360931 971.0371,232.350381 985.357316,222.178448 C985.470779,222.110599 985.583965,222.042485 985.696871,221.974107 C986.783303,221.31614 987.761169,220.566546 988.635394,219.73129 C1008.11925,204.454569 1020.56791,181.150897 1020.56791,155.042437 C1020.56791,109.026904 981.898354,71.7239431 934.197036,71.7239431 C922.222998,71.7239431 913.798136,71.3932716 907.895118,71.6257786 C894.037608,71.640717 881.974873,71.6172729 881.974873,71.6172729 L881.974873,238.369226 C881.974873,238.369226 895.191911,239.546575 913.115672,238.888185 Z M944.128146,306.588484 C918.021889,308.530964 880.768376,307.940288 880.768376,307.940288 L880.768376,527 L795.681384,527 L795.3867,0.927233063 C795.3867,0.927233063 922.281835,-0.131520046 965.589464,0.519998848 C966.007572,0.505942423 966.427252,0.498880677 966.848522,0.498880677 C1054.58487,0.498880677 1106.93879,68.9188932 1106.93879,153.554607 C1106.93879,238.190321 1035.81442,306.801123 948.07807,306.801123 C946.736574,306.801123 945.419978,306.729513 944.128148,306.588485 Z" id="Combined-Shape" fill="#EC2052"></path>
            <path d="M98.1424846,308.024605 C90.4432809,308.020543 85.3816757,307.940288 85.3816757,307.940288 L85.3816757,527 L0.294684655,527 L-1.13686838e-13,0.927233063 C-1.13686838e-13,0.927233063 126.895135,-0.131520046 170.202764,0.519998848 C170.620872,0.505942423 171.040552,0.498880677 171.461822,0.498880677 C259.198174,0.498880677 311.552089,68.9188932 311.552089,153.554607 C311.552089,227.13331 257.797525,288.600662 186.105507,303.405345 L360.644685,526.178173 L258.71653,526.178173 L98.1424846,308.024605 Z M117.728972,238.888185 C126.773482,238.961935 135.448511,238.360931 138.810336,238.360931 C157.958003,238.360931 175.6504,232.350381 189.970616,222.178448 C190.084079,222.110599 190.197265,222.042485 190.310171,221.974107 C191.396603,221.31614 192.374469,220.566546 193.248694,219.73129 C212.732547,204.454569 225.181213,181.150897 225.181213,155.042437 C225.181213,109.026904 186.511654,71.7239431 138.810336,71.7239431 C126.836298,71.7239431 118.411436,71.3932716 112.508418,71.6257786 C98.6509085,71.640717 86.5881727,71.6172729 86.5881727,71.6172729 L86.5881727,238.369226 C86.5881727,238.369226 99.8052114,239.546575 117.728972,238.888185 Z" id="Combined-Shape" fill="#556BB3"></path>
            <polygon id="Path-4" fill="#FDE500" points="431.903531 0.308091016 431.903531 524.678908 515.954501 524.678908 515.954501 278.407296 694.469713 278.407296 694.469713 202.509787 514.849648 202.509787 514.849648 73.6632675 708.581943 73.6632675 708.581941 0.308091016"></polygon>
        </g>
        <g id="Group" transform="translate(0.000000, -52.000000)">
            <path d="M362.180427,335.259428 C579.242595,335.259428 796.304762,434.786132 796.304762,434.786132 C796.304762,434.786132 506.888539,395.611715 362.180427,395.611715 C217.472315,395.611715 -71.943908,434.786132 -71.943908,434.786132 C-71.943908,434.786132 145.11826,335.259428 362.180427,335.259428 Z" id="Triangle-1-Copy-2" fill="#FF9A00" transform="translate(362.180427, 385.022780) scale(1, -1) rotate(125.000000) translate(-362.180427, -385.022780) "></path>
            <path d="M278.883628,363.754457 C456.578643,363.754457 634.273657,445.23065 634.273657,445.23065 C634.273657,445.23065 397.346971,413.161042 278.883628,413.161042 C160.420285,413.161042 -76.5064013,445.23065 -76.5064013,445.23065 C-76.5064013,445.23065 101.188613,363.754457 278.883628,363.754457 Z" id="Triangle-1-Copy-3" fill="#556BB3" transform="translate(278.883628, 404.492553) scale(1, -1) rotate(-128.000000) translate(-278.883628, -404.492553) "></path>
            <path d="M306.700803,553.135674 C460.55884,553.135674 614.416878,623.682206 614.416878,623.682206 C614.416878,623.682206 409.272828,595.914591 306.700803,595.914591 C204.128778,595.914591 -1.01527208,623.682206 -1.01527208,623.682206 C-1.01527208,623.682206 152.842765,553.135674 306.700803,553.135674 Z" id="Triangle-1-Copy" fill="#EC2052" transform="translate(306.700803, 588.408940) scale(1, -1) rotate(15.000000) translate(-306.700803, -588.408940) "></path>
            <path d="M285.717068,409.829408 C358.650385,316.514233 529.79775,149.627904 529.79775,149.627904 C529.79775,149.627904 356.169431,239.438914 246.769456,379.411677" id="Triangle-1" fill="#556BB3"></path>
        </g>
        <g id="Group-3" transform="translate(1867.000000, 285.000000)" font-size="149.61039" font-family="Helvetica" fill="#7F7D7D" font-weight="normal">
            <text id="Quick">
                <tspan x="419.573052" y="145">Quick</tspan>
            </text>
            <text id="Cheap">
                <tspan x="894" y="145">Cheap</tspan>
            </text>
            <text id="Good">
                <tspan x="0" y="145">Good</tspan>
            </text>
        </g>
    </g>
</svg>