<?xml version="1.0" encoding="UTF-8" standalone="no"?>
<svg width="1867px" height="821px" viewBox="0 0 1867 821" version="1.1" xmlns="http://www.w3.org/2000/svg" xmlns:xlink="http://www.w3.org/1999/xlink">
    <!-- Generator: Sketch 3.7.2 (28276) - http://www.bohemiancoding.com/sketch -->
    <title>rfp logo 2</title>
    <desc>Created with Sketch.</desc>
    <defs></defs>
    <g id="Page-1" stroke="none" stroke-width="1" fill="none" fill-rule="evenodd">
        <g id="Group" transform="translate(356.461636, 376.212986) rotate(12.000000) translate(-356.461636, -376.212986) translate(30.461636, -8.787014)">
            <path d="M362.180427,335.259428 C579.242595,335.259428 796.304762,434.786132 796.304762,434.786132 C796.304762,434.786132 506.888539,395.611715 362.180427,395.611715 C217.472315,395.611715 -71.943908,434.786132 -71.943908,434.786132 C-71.943908,434.786132 145.11826,335.259428 362.180427,335.259428 Z" id="Triangle-1-Copy-2" fill="#FBBC05" transform="translate(362.180427, 385.022780) scale(1, -1) rotate(125.000000) translate(-362.180427, -385.022780) "></path>
            <path d="M278.883628,363.754457 C456.578643,363.754457 634.273657,445.23065 634.273657,445.23065 C634.273657,445.23065 397.346971,413.161042 278.883628,413.161042 C160.420285,413.161042 -76.5064013,445.23065 -76.5064013,445.23065 C-76.5064013,445.23065 101.188613,363.754457 278.883628,363.754457 Z" id="Triangle-1-Copy-3" fill="#4285F4" transform="translate(278.883628, 404.492553) scale(1, -1) rotate(-128.000000) translate(-278.883628, -404.492553) "></path>
            <path d="M306.700803,553.135674 C460.55884,553.135674 614.416878,623.682206 614.416878,623.682206 C614.416878,623.682206 409.272828,595.914591 306.700803,595.914591 C204.128778,595.914591 -1.01527208,623.682206 -1.01527208,623.682206 C-1.01527208,623.682206 152.842765,553.135674 306.700803,553.135674 Z" id="Triangle-1-Copy" fill="#EA4335" transform="translate(306.700803, 588.408940) scale(1, -1) rotate(15.000000) translate(-306.700803, -588.408940) "></path>
            <path d="M285.717068,409.829408 C358.650385,316.514233 529.79775,149.627904 529.79775,149.627904 C529.79775,149.627904 356.169431,239.438914 246.769456,379.411677" id="Triangle-1" fill="#4285F4"></path>
        </g>
        <text id="RFP" font-family="YuppyTC-Regular, Yuppy TC" font-size="600" font-weight="normal">
            <tspan x="729.2" y="605" fill="#4285F4">R</tspan>
            <tspan x="1115.6" y="605" fill="#FBBC05">F</tspan>
            <tspan x="1482.8" y="605" fill="#EA4335">P</tspan>
        </text>
    </g>
</svg>