<?xml version="1.0" encoding="UTF-8" standalone="no"?>
<svg width="3272px" height="534px" viewBox="0 0 3272 534" version="1.1" xmlns="http://www.w3.org/2000/svg" xmlns:xlink="http://www.w3.org/1999/xlink">
    <!-- Generator: Sketch 3.7.2 (28276) - http://www.bohemiancoding.com/sketch -->
    <title>rfp logo 2</title>
    <desc>Created with Sketch.</desc>
    <defs></defs>
    <g id="Page-1" stroke="none" stroke-width="1" fill="none" fill-rule="evenodd">
        <g id="Group" transform="translate(0.000000, -44.000000)">
            <path d="M195.508714,264.158073 L195.508714,264.148122 C95.2476464,264.148122 -101.957571,232.732944 -106.991291,237.896081 C-112.02501,243.059218 -63.8022511,266.629332 -0.65887569,293.457145 C54.6306573,316.948086 125.219348,338.978112 195.508709,338.978112 C265.735035,338.93336 336.585696,316.937348 391.824737,293.46786 C454.968112,266.640046 503.190872,243.069932 498.157152,237.906795 C493.129873,232.750266 295.890166,264.077886 195.508714,264.158073 Z" id="Combined-Shape-Copy" fill="#EC2052" transform="translate(195.582931, 288.150490) scale(-1, 1) rotate(-120.000000) translate(-195.582931, -288.150490) "></path>
            <path d="M703.113632,470.372474 C632.824271,470.372474 562.23558,448.342447 506.946047,424.851507 C443.802671,398.023693 395.579912,374.453579 400.613632,369.290442 C405.647352,364.127306 602.852569,395.542483 703.113636,395.542483" id="Path" fill="#FDE500" transform="translate(551.683140, 419.544851) rotate(-121.000000) translate(-551.683140, -419.544851) "></path>
            <path d="M330.851567,502.824492 L330.851567,502.81454 C230.590499,502.81454 33.3852825,471.399363 28.3515625,476.5625 C23.3178425,481.725637 71.5406019,505.295751 134.683977,532.123564 C189.97351,555.614505 260.562202,577.644531 330.851562,577.644531 C401.077888,577.599779 471.928549,555.603767 527.16759,532.134278 C590.310965,505.306465 638.533725,481.736351 633.500005,476.573214 C628.472726,471.416684 431.233019,502.744305 330.851567,502.824492 Z" id="Combined-Shape" fill="#556BB3"></path>
            <path d="M246.364783,209.606075 C316.654144,209.606075 387.58385,187.591305 442.873383,164.100364 C506.016758,137.27255 554.239517,113.702437 549.205797,108.5393 C544.172077,103.376163 346.433047,134.790731 246.171979,134.790731" id="Combined-Shape-Copy-2" fill="#FDE500" transform="translate(397.869382, 158.786075) rotate(-120.000000) translate(-397.869382, -158.786075) "></path>
            <path d="M1653.11567,287.888185 C1662.16018,287.961935 1670.83521,287.360931 1674.19704,287.360931 C1693.3447,287.360931 1711.0371,281.350381 1725.35732,271.178448 C1725.47078,271.110599 1725.58396,271.042485 1725.69687,270.974107 C1726.7833,270.31614 1727.76117,269.566546 1728.63539,268.73129 C1748.11925,253.454569 1760.56791,230.150897 1760.56791,204.042437 C1760.56791,158.026904 1721.89835,120.723943 1674.19704,120.723943 C1662.223,120.723943 1653.79814,120.393272 1647.89512,120.625779 C1634.03761,120.640717 1621.97487,120.617273 1621.97487,120.617273 L1621.97487,287.369226 C1621.97487,287.369226 1635.19191,288.546575 1653.11567,287.888185 Z M1684.12815,355.588484 C1658.02189,357.530964 1620.76838,356.940288 1620.76838,356.940288 L1620.76838,576 L1535.68138,576 L1535.3867,49.9272331 C1535.3867,49.9272331 1662.28183,48.86848 1705.58946,49.5199988 C1706.00757,49.5059424 1706.42725,49.4988807 1706.84852,49.4988807 C1794.58487,49.4988807 1846.93879,117.918893 1846.93879,202.554607 C1846.93879,287.190321 1775.81442,355.801123 1688.07807,355.801123 C1686.73657,355.801123 1685.41998,355.729513 1684.12815,355.588485 Z" id="Combined-Shape" fill="#EC2052"></path>
            <path d="M838.142485,357.024605 C830.443281,357.020543 825.381676,356.940288 825.381676,356.940288 L825.381676,576 L740.294685,576 L740,49.9272331 C740,49.9272331 866.895135,48.86848 910.202764,49.5199988 C910.620872,49.5059424 911.040552,49.4988807 911.461822,49.4988807 C999.198174,49.4988807 1051.55209,117.918893 1051.55209,202.554607 C1051.55209,276.13331 997.797525,337.600662 926.105507,352.405345 L1100.64468,575.178173 L998.71653,575.178173 L838.142485,357.024605 Z M857.728972,287.888185 C866.773482,287.961935 875.448511,287.360931 878.810336,287.360931 C897.958003,287.360931 915.6504,281.350381 929.970616,271.178448 C930.084079,271.110599 930.197265,271.042485 930.310171,270.974107 C931.396603,270.31614 932.374469,269.566546 933.248694,268.73129 C952.732547,253.454569 965.181213,230.150897 965.181213,204.042437 C965.181213,158.026904 926.511654,120.723943 878.810336,120.723943 C866.836298,120.723943 858.411436,120.393272 852.508418,120.625779 C838.650909,120.640717 826.588173,120.617273 826.588173,120.617273 L826.588173,287.369226 C826.588173,287.369226 839.805211,288.546575 857.728972,287.888185 Z" id="Combined-Shape" fill="#556BB3"></path>
            <polygon id="Path-4" fill="#FDE500" points="1171.90353 49.308091 1171.90353 573.678908 1255.9545 573.678908 1255.9545 327.407296 1434.46971 327.407296 1434.46971 251.509787 1254.84965 251.509787 1254.84965 122.663267 1448.58194 122.663267 1448.58194 49.308091"></polygon>
        </g>
        <g id="Group-3" transform="translate(1937.000000, 177.000000)" font-size="149.61039" font-family="Helvetica" fill="#7F7D7D" font-weight="normal">
            <text id="Quick">
                <tspan x="419.573052" y="145">Quick</tspan>
            </text>
            <text id="Cheap">
                <tspan x="894" y="145">Cheap</tspan>
            </text>
            <text id="Good">
                <tspan x="0" y="145">Good</tspan>
            </text>
        </g>
    </g>
</svg>